<svg xmlns="http://www.w3.org/2000/svg" viewBox="0 0 512 512" fill="currentColor">
  <path d="M400 4921 c-98 -31 -163 -72 -235 -145 -82 -83 -118 -145 -145 -252 -20 -75 -20 -115 -20 -1608 0 -1290 3 -1542 15 -1599 32 -150 143 -297 280 -369 121 -63 110 -61 603 -67 l453 -6 -91 -54 c-105 -62 -172 -130 -195 -200 -17 -52 -21 -138 -10 -192 20 -93 95 -183 187 -224 58 -26 72 -28 199 -29 121 -1 139 1 158 18 14 13 21 31 21 56 0 60 -16 67 -169 73 -127 5 -135 6 -174 33 -53 38 -77 85 -77 152 0 58 15 95 52 128 12 11 109 71 215 132 l191 112 903 0 902 0 191 -111 c105 -62 202 -121 214 -133 37 -33 52 -70 52 -128 0 -95 -57 -164 -147 -179 -26 -4 -467 -8 -979 -8 -920 -1 -931 -1 -949 -21 -25 -28 -23 -76 4 -103 l22 -22 972 0 972 0 62 29 c118 54 184 151 191 282 8 153 -45 239 -208 335 l-91 54 453 6 c493 6 482 4 603 67 137 72 248 219 280 369 12 57 15 309 15 1599 0 1493 0 1533 -20 1608 -11 43 -32 101 -47 129 -39 74 -155 188 -228 224 -133 68 16 63 -1942 63 -1760 0 -1773 0 -1793 -20 -33 -33 -23 -97 17 -116 10 -5 817 -11 1793 -14 l1775 -5 57 -28 c88 -43 152 -107 195 -195 l38 -76 0 -1565 c0 -1769 7 -1613 -80 -1729 -53 -69 -121 -117 -204 -143 -61 -19 -113 -19 -2121 -19 -2035 0 -2059 0 -2123 20 -117 36 -217 131 -264 250 -17 42 -18 133 -18 1616 l0 1570 38 76 c43 88 107 152 195 195 55 27 64 28 245 33 l189 5 24 28 c29 34 30 56 3 91 l-20 26 -187 -1 c-151 0 -198 -4 -242 -18z" transform="translate(0,512) scale(0.1,-0.1)"/>
  <path d="M442 4614 c-29 -14 -65 -42 -82 -62 -64 -78 -61 10 -58 -1507 l3 -1380 22 -41 c12 -22 40 -57 62 -77 80 -72 -82 -67 2171 -67 2253 0 2091 -5 2171 67 63 57 82 103 87 208 4 79 2 93 -16 115 -14 18 -29 24 -57 24 -55 0 -75 -29 -75 -111 0 -38 -6 -76 -15 -93 -33 -65 127 -60 -2097 -60 -2004 0 -2023 0 -2056 20 -18 11 -37 32 -42 46 -15 38 -13 2709 1 2737 6 12 21 30 33 39 20 17 143 18 2066 18 1923 0 2046 -1 2066 -18 12 -9 27 -27 33 -39 8 -16 11 -339 11 -1151 0 -1127 0 -1129 21 -1156 28 -36 80 -36 108 0 21 27 21 29 21 1164 0 1252 3 1185 -62 1264 -17 21 -54 49 -82 62 l-51 24 -2066 0 -2065 0 -52 -26z" transform="translate(0,512) scale(0.1,-0.1)"/>
  <path d="M1315 3735 c-46 -45 -36 -67 90 -195 63 -64 115 -120 115 -125 0 -5 -52 -61 -115 -125 -70 -72 -115 -125 -115 -137 0 -37 38 -73 77 -73 33 0 48 11 152 115 l117 115 114 -115 c104 -104 118 -115 151 -115 44 0 72 28 72 71 0 25 -18 49 -116 147 l-117 117 106 105 c124 124 141 149 123 191 -6 17 -20 34 -30 39 -43 23 -63 11 -179 -105 -63 -63 -119 -115 -124 -115 -6 0 -62 52 -126 115 -128 126 -150 136 -195 90z" transform="translate(0,512) scale(0.1,-0.1)"/>
  <path d="M3179 3750 c-9 -5 -22 -23 -28 -39 -18 -42 -1 -67 123 -191 l106 -105 -117 -117 c-98 -98 -116 -122 -116 -147 0 -43 28 -71 72 -71 33 0 47 11 151 115 l114 115 117 -116 c112 -110 119 -115 155 -112 26 2 43 11 57 30 33 44 17 72 -104 188 -60 58 -109 109 -109 114 0 6 52 62 115 126 126 128 136 150 90 195 -45 46 -67 36 -195 -90 -64 -63 -120 -115 -126 -115 -5 0 -61 52 -124 115 -117 117 -139 130 -181 105z" transform="translate(0,512) scale(0.1,-0.1)"/>
  <path d="M2377 2975 c-192 -37 -370 -130 -512 -270 -161 -158 -213 -260 -155 -307 39 -31 79 -21 117 32 131 177 205 244 358 319 150 74 204 86 375 86 172 -1 228 -13 375 -85 149 -72 225 -140 358 -320 38 -53 78 -63 117 -32 56 45 7 147 -144 298 -132 131 -282 217 -464 265 -103 28 -317 34 -425 14z" transform="translate(0,512) scale(0.1,-0.1)"/>
</svg>
